Exact Audio Copy V0.99 prebeta 1 from 25. May 2007

EAC 抓取日志文件从19. 十一月 2010, 1:09

张也 / 20世纪中华歌坛名人百集珍藏版

使用驱动器  ：BENQ    DVD-ROM 16X   Adapter: 0  ID: 1

读取模式     : 保护
使用精确流   : 是
废除音频缓冲 : 是
使用 C2 指针 : 否

读取偏移校正                   : 738
读取 Lead-In 和 Lead-Out       : 否
用静音填充抓取中丢失偏移的采样 : 是
去除首尾静音块                 : 否
已用接口                       : Win NT 及 2000 本地 Win32 接口

所用输出格式 : 内部 WAV 函数
样本格式     : 44.100 Hz;16 Bit;立体声


被抓轨 CD 的 TOC

     音轨 |   开始   |   长度   | 起始扇区 | 结尾扇区 
    --------------------------------------------------
       1  |  0:00.32 |  3:54.73 |      32  |   17654  
       2  |  3:55.30 |  3:36.25 |   17655  |   33879  
       3  |  7:31.55 |  3:35.47 |   33880  |   50051  
       4  | 11:07.27 |  4:14.15 |   50052  |   69116  
       5  | 15:21.42 |  3:23.10 |   69117  |   84351  
       6  | 18:44.52 |  4:03.50 |   84352  |  102626  
       7  | 22:48.27 |  3:10.73 |  102627  |  116949  
       8  | 25:59.25 |  5:14.17 |  116950  |  140516  
       9  | 31:13.42 |  4:43.73 |  140517  |  161814  
      10  | 35:57.40 |  5:02.00 |  161815  |  184464  
      11  | 40:59.40 |  4:16.07 |  184465  |  203671  
      12  | 45:15.47 |  5:59.08 |  203672  |  230604  
      13  | 51:14.55 |  4:04.62 |  230605  |  248966  


范围状态及错误

已选择范围

     文件名 E:\文件夹\20世纪中华歌坛名人百集珍藏版-张也[lwg188原创]\张也 - 20世纪中华歌坛名人百集珍藏版.wav

     峰值电平 100.0 %
     范围质量 100.0 %
     复制 CRC C3DC0B06
     复制成功

没有错误发生

状态报告结尾
